<?xml version="1.0" encoding="UTF-8" standalone="no"?>
<!DOCTYPE svg PUBLIC "-//W3C//DTD SVG 1.1//EN" "http://www.w3.org/Graphics/SVG/1.1/DTD/svg11.dtd">
<svg width="100%" height="100%" viewBox="0 0 501 501" version="1.1" xmlns="http://www.w3.org/2000/svg" xmlns:xlink="http://www.w3.org/1999/xlink" xml:space="preserve" xmlns:serif="http://www.serif.com/" style="fill-rule:evenodd;clip-rule:evenodd;stroke-linejoin:round;stroke-miterlimit:2;">
    <g transform="matrix(1,0,0,1,-3097.28,0)">
        <g id="ab" transform="matrix(1,0,0,1,3986.8,83.3352)">
            <rect x="-889.52" y="-83.335" width="500.051" height="500.051" style="fill:none;"/>
            <g transform="matrix(0.657303,0,0,0.657303,-807.765,-1.57938)">
                <path d="M195.403,349.617L149.812,254.085C144.003,241.913 126.624,241.91 120.815,254.085L75.223,349.617C71.402,357.624 74.795,367.213 82.803,371.034C90.809,374.857 100.399,371.462 104.22,363.454L110.721,349.833L159.905,349.833L166.407,363.454C169.163,369.229 174.918,372.604 180.916,372.604C192.604,372.602 200.523,360.345 195.403,349.617ZM126.055,317.704L135.314,298.303L144.574,317.704L126.055,317.704Z" style="fill-rule:nonzero;"/>
                <path d="M332.352,376.776L388.775,376.776C424.079,376.776 443.62,335.876 421.878,308.413C443.61,280.959 424.09,240.049 388.775,240.049L332.352,240.049C323.479,240.049 316.287,247.242 316.287,256.114L316.287,360.712C316.287,369.584 323.48,376.776 332.352,376.776ZM348.417,272.179L388.775,272.179C394.336,272.179 398.86,276.703 398.86,282.263C398.86,287.824 394.336,292.348 388.775,292.348L348.417,292.348L348.417,272.179ZM348.417,324.477L388.775,324.477C394.336,324.477 398.86,329.002 398.86,334.562C398.86,340.123 394.336,344.647 388.775,344.647L348.417,344.647L348.417,324.477Z" style="fill-rule:nonzero;"/>
                <path d="M495.806,0L16.194,0C7.323,0 0.13,7.193 0.13,16.065L0.13,495.935C0.13,504.807 7.323,512 16.194,512L495.806,512C504.677,512 511.87,504.807 511.87,495.935L511.87,16.065C511.87,7.193 504.677,0 495.806,0ZM32.259,149.942L229.908,149.942L229.908,479.871L32.259,479.871L32.259,149.942ZM479.741,479.871L262.038,479.871L262.038,149.942L479.741,149.942L479.741,479.871ZM479.741,117.813L32.259,117.813L32.259,32.129L479.741,32.129L479.741,117.813Z" style="fill-rule:nonzero;"/>
            </g>
        </g>
    </g>
</svg>
