<?xml version="1.0" encoding="UTF-8" standalone="no"?>
<!DOCTYPE svg PUBLIC "-//W3C//DTD SVG 1.1//EN" "http://www.w3.org/Graphics/SVG/1.1/DTD/svg11.dtd">
<svg width="100%" height="100%" viewBox="0 0 501 501" version="1.1" xmlns="http://www.w3.org/2000/svg" xmlns:xlink="http://www.w3.org/1999/xlink" xml:space="preserve" xmlns:serif="http://www.serif.com/" style="fill-rule:evenodd;clip-rule:evenodd;stroke-linejoin:round;stroke-miterlimit:2;">
    <g transform="matrix(1,0,0,1,-3097.28,-795.592)">
        <g id="durable" transform="matrix(1,0,0,1,3986.8,878.928)">
            <rect x="-889.52" y="-83.335" width="500.051" height="500.051" style="fill:none;"/>
            <g transform="matrix(0.661322,0,0,0.661322,-807.819,3.36644)">
                <path d="M159.602,512C115.891,512 80.332,476.441 80.332,432.734C80.332,432.375 80.336,432.016 80.34,431.66C79.98,431.664 79.625,431.664 79.266,431.664C35.559,431.668 0,396.109 0,352.398C0,308.691 35.559,273.133 79.266,273.133C95.344,273.133 110.691,277.891 123.707,286.746L286.746,123.699C277.895,110.687 273.137,95.34 273.137,79.266C273.133,35.559 308.691,0 352.398,0C396.109,0 431.668,35.559 431.668,79.266C431.668,79.625 431.664,79.984 431.66,80.34C432.016,80.336 432.375,80.336 432.734,80.336C476.441,80.336 512,115.895 512,159.602C512,203.309 476.441,238.867 432.734,238.867C416.656,238.867 401.309,234.105 388.289,225.25L225.254,388.293C234.105,401.309 238.867,416.656 238.867,432.734C238.867,476.441 203.309,512 159.602,512ZM112.496,418.258C111.063,422.91 110.336,427.781 110.336,432.734C110.336,459.898 132.434,482 159.602,482C186.766,482 208.867,459.898 208.867,432.734C208.867,419.582 203.742,407.211 194.43,397.902C188.574,392.047 188.574,382.547 194.43,376.691L376.691,194.422C382.547,188.562 392.051,188.57 397.902,194.422C407.219,203.734 419.586,208.867 432.734,208.867C459.898,208.867 482,186.766 482,159.598C482,132.434 459.898,110.332 432.734,110.332C427.789,110.332 422.914,111.059 418.254,112.496C406.758,116.027 395.965,105.242 399.504,93.746C400.938,89.082 401.668,84.211 401.668,79.266C401.668,52.102 379.566,30 352.398,30C325.234,30 303.133,52.102 303.133,79.266C303.133,92.414 308.262,104.781 317.57,114.09C323.43,119.945 323.422,129.449 317.57,135.301L135.309,317.57C129.453,323.43 119.949,323.422 114.098,317.57C104.785,308.262 92.418,303.133 79.266,303.133C52.102,303.133 30,325.234 30,352.398C30,379.566 52.102,401.668 79.266,401.668C84.191,401.668 89.07,400.937 93.766,399.496C106.188,395.691 115.758,407.672 112.496,418.258Z" style="fill-rule:nonzero;"/>
            </g>
        </g>
    </g>
</svg>
