<?xml version="1.0" encoding="UTF-8" standalone="no"?>
<!DOCTYPE svg PUBLIC "-//W3C//DTD SVG 1.1//EN" "http://www.w3.org/Graphics/SVG/1.1/DTD/svg11.dtd">
<svg width="100%" height="100%" viewBox="0 0 501 501" version="1.1" xmlns="http://www.w3.org/2000/svg" xmlns:xlink="http://www.w3.org/1999/xlink" xml:space="preserve" xmlns:serif="http://www.serif.com/" style="fill-rule:evenodd;clip-rule:evenodd;stroke-linejoin:round;stroke-miterlimit:2;">
    <g transform="matrix(1,0,0,1,-619.456,-795.592)">
        <g id="safety" transform="matrix(1,0,0,1,1508.98,878.928)">
            <rect x="-889.52" y="-83.335" width="500.051" height="500.051" style="fill:none;"/>
            <g transform="matrix(0.673019,0,0,0.673019,-810.813,0.372003)">
                <path d="M482,363.58L482,316C482,266.612 466.075,219.669 435.947,180.247C409.204,145.254 372.228,118.417 330.944,103.804C329.795,80.007 310.077,61 286,61L226,61C201.923,61 182.205,80.007 181.056,103.804C139.772,118.417 102.796,145.254 76.053,180.247C45.925,219.669 30,266.612 30,316L30,363.58C12.541,369.772 0,386.445 0,406C0,430.813 20.187,451 45,451L467,451C491.813,451 512,430.813 512,406C512,386.445 499.459,369.772 482,363.58ZM60,316C60,261.909 83.106,211.272 121,175.145L121,226C121,234.284 127.716,241 136,241C144.284,241 151,234.284 151,226L151,151.617C160.452,145.583 170.477,140.319 181,135.938L181,256C181,264.284 187.716,271 196,271C204.284,271 211,264.284 211,256L211,114.932C211.001,114.891 211,114.85 211,114.809L211,106C211,97.729 217.729,91 226,91L286,91C294.271,91 301,97.729 301,106L301,114.805C301,114.848 300.999,114.89 301,114.933L301,256C301,264.284 307.716,271 316,271C324.284,271 331,264.284 331,256L331,135.938C341.523,140.32 351.548,145.584 361,151.617L361,226C361,234.284 367.716,241 376,241C384.284,241 391,234.284 391,226L391,175.145C428.894,211.272 452,261.909 452,316L452,361L60,361L60,316ZM467,421L45,421C36.729,421 30,414.271 30,406C30,397.729 36.729,391 45,391L467,391C475.271,391 482,397.729 482,406C482,414.271 475.271,421 467,421Z" style="fill-rule:nonzero;"/>
            </g>
        </g>
    </g>
</svg>
