<?xml version="1.0" encoding="UTF-8" standalone="no"?>
<!DOCTYPE svg PUBLIC "-//W3C//DTD SVG 1.1//EN" "http://www.w3.org/Graphics/SVG/1.1/DTD/svg11.dtd">
<svg width="100%" height="100%" viewBox="0 0 501 501" version="1.1" xmlns="http://www.w3.org/2000/svg" xmlns:xlink="http://www.w3.org/1999/xlink" xml:space="preserve" xmlns:serif="http://www.serif.com/" style="fill-rule:evenodd;clip-rule:evenodd;stroke-linejoin:round;stroke-miterlimit:2;">
    <g transform="matrix(1,0,0,1,-2477.82,-795.592)">
        <g id="service" transform="matrix(1,0,0,1,3367.34,878.928)">
            <rect x="-889.52" y="-83.335" width="500.051" height="500.051" style="fill:none;"/>
            <g transform="matrix(0.667707,0,0,0.667707,-804.454,1.73175)">
                <path d="M120,203L80.481,203C87.157,112 163.326,40 256,40C329.334,40 395.692,86.19 421.125,154.939C424.957,165.298 436.461,170.589 446.822,166.758C457.181,162.925 462.473,151.421 458.641,141.061C443.483,100.085 416.554,65.021 380.767,39.659C344.157,13.714 301.013,0 256,0C198.305,0 144.062,22.468 103.265,63.265C63,103.53 40.605,156.894 40.027,213.747C16.125,227.597 0,253.443 0,283L0,351C0,395.112 35.888,431 80,431L120,431C131.046,431 140,422.046 140,411L140,223C140,211.954 131.046,203 120,203ZM100,391L80,391C57.944,391 40,373.056 40,351L40,283C40,260.944 57.944,243 80,243L100,243L100,391Z" style="fill-rule:nonzero;"/>
            </g>
            <g transform="matrix(0.667707,0,0,0.667707,-804.454,1.73175)">
                <path d="M432,203L392,203C380.954,203 372,211.954 372,223L372,432C372,443.028 363.028,452 352,452L291,452L291,452.634C284.178,440.331 271.064,432 256,432C233.909,432 216,449.909 216,472C216,494.091 233.909,512 256,512C271.064,512 284.178,503.669 291,491.366L291,492L352,492C385.084,492 412,465.084 412,432L412,431L432,431C476.112,431 512,395.112 512,351L512,283C512,238.888 476.112,203 432,203ZM472,351C472,373.056 454.056,391 432,391L412,391L412,360L412,243L432,243C454.056,243 472,260.944 472,283L472,351Z" style="fill-rule:nonzero;"/>
            </g>
        </g>
    </g>
</svg>
