<?xml version="1.0" encoding="UTF-8" standalone="no"?>
<!DOCTYPE svg PUBLIC "-//W3C//DTD SVG 1.1//EN" "http://www.w3.org/Graphics/SVG/1.1/DTD/svg11.dtd">
<svg width="100%" height="100%" viewBox="0 0 501 501" version="1.1" xmlns="http://www.w3.org/2000/svg" xmlns:xlink="http://www.w3.org/1999/xlink" xml:space="preserve" xmlns:serif="http://www.serif.com/" style="fill-rule:evenodd;clip-rule:evenodd;stroke-linejoin:round;stroke-miterlimit:2;">
    <g transform="matrix(1,0,0,1,-1292.14,0)">
        <g id="sketch" transform="matrix(1,0,0,1,2181.66,83.3352)">
            <rect x="-889.52" y="-83.335" width="500.051" height="500.051" style="fill:none;"/>
            <g transform="matrix(0.927335,0,0,0.927335,-876.893,-138.008)">
                <g id="sketch1" serif:id="sketch">
                    <path d="M454.254,258.609L398.551,172.59C394.234,165.923 386.914,161.942 378.971,161.942L133.204,161.942C125.273,161.942 117.96,165.913 113.641,172.563L57.765,258.593C52.055,267.383 52.937,278.989 59.91,286.815L238.572,487.395C242.994,492.359 249.342,495.207 255.99,495.207L255.991,495.207C262.638,495.207 268.988,492.36 273.41,487.396L452.092,286.804C459.055,278.987 459.944,267.393 454.254,258.609ZM367.687,181.941L320.841,254.381L273.967,181.941L367.687,181.941ZM302.462,262.793L209.518,262.793L255.99,190.974L302.462,262.793ZM238.013,181.943L191.268,254.184L144.539,181.943L238.013,181.943ZM126.048,190.178L173.018,262.793L78.885,262.793L126.048,190.178ZM83.109,282.793L183.754,282.793L236.97,455.528L83.109,282.793ZM255.99,449.336L204.681,282.793L307.299,282.793L255.99,449.336ZM275.009,455.534L328.227,282.794L428.881,282.794L275.009,455.534ZM339.22,262.793L386.147,190.228L433.136,262.793L339.22,262.793Z" style="fill-rule:nonzero;"/>
                </g>
            </g>
        </g>
    </g>
</svg>
