<?xml version="1.0" encoding="UTF-8" standalone="no"?>
<!DOCTYPE svg PUBLIC "-//W3C//DTD SVG 1.1//EN" "http://www.w3.org/Graphics/SVG/1.1/DTD/svg11.dtd">
<svg width="100%" height="100%" viewBox="0 0 501 501" version="1.1" xmlns="http://www.w3.org/2000/svg" xmlns:xlink="http://www.w3.org/1999/xlink" xml:space="preserve" xmlns:serif="http://www.serif.com/" style="fill-rule:evenodd;clip-rule:evenodd;stroke-linejoin:round;stroke-miterlimit:2;">
    <g transform="matrix(1,0,0,1,-1858.37,-795.592)">
        <g id="sourcing" transform="matrix(1,0,0,1,2747.89,878.928)">
            <rect x="-889.52" y="-83.335" width="500.051" height="500.051" style="fill:none;"/>
            <g transform="matrix(0.722844,0,0,0.722844,-823.569,-12.4758)">
                <path d="M497,96.066L480.933,96.066C476.953,96.066 473.14,97.648 470.328,100.461L394.387,176.398L380.18,176.398L366.953,123.496C365.285,116.816 359.285,112.133 352.402,112.133L319.203,112.133L319.203,95C319.203,86.715 312.484,80 304.203,80L47.133,80C40.676,80 34.945,84.133 32.902,90.258L0.77,186.656C0.031,188.863 -0.18,191.215 0.152,193.52L16.219,305.988C16.781,309.926 18.887,313.48 22.066,315.867L86.336,364.066C88.93,366.012 92.09,367.066 95.336,367.066L153.387,367.066L165.059,378.738C167.875,381.551 171.687,383.133 175.668,383.133L199.773,383.133L227.453,424.652C230.234,428.824 234.918,431.332 239.934,431.332L272.066,431.332C278.523,431.332 284.254,427.203 286.297,421.074L298.945,383.133L312.234,383.133C317.914,383.133 323.109,379.922 325.648,374.84L329.539,367.066L378.32,367.066L422.129,410.875C427.984,416.73 437.48,416.73 443.34,410.875L475.472,378.738C480.531,373.684 481.312,365.762 477.347,359.812L456.172,328.047C453.773,324.449 454.25,319.629 457.308,316.57L475.472,298.406C478.285,295.594 479.867,291.777 479.867,287.801L479.867,243.141L510.418,182.043C511.461,179.957 512,177.66 512,175.332L512,111.066C512,102.781 505.285,96.066 497,96.066ZM482,171.793L451.449,232.891C450.406,234.977 449.867,237.27 449.867,239.602L449.867,281.586L436.101,295.352C422.957,308.484 420.902,329.234 431.211,344.687L445.566,366.223L432.734,379.055L395.14,341.461C392.328,338.648 388.512,337.066 384.531,337.066L320.266,337.066C314.586,337.066 309.391,340.277 306.848,345.359L302.961,353.133L288.133,353.133C281.676,353.133 275.945,357.266 273.902,363.391L261.254,401.336L247.961,401.336L220.281,359.812C217.5,355.641 212.816,353.133 207.801,353.133L181.879,353.133L170.207,341.461C167.394,338.648 163.578,337.066 159.602,337.066L100.332,337.066L45.039,295.594L30.352,192.785L57.945,110L289.199,110L289.199,127.133C289.199,135.418 295.918,142.133 304.199,142.133L340.687,142.133L353.914,195.039C355.582,201.715 361.582,206.398 368.465,206.398L400.601,206.398C404.578,206.398 408.394,204.82 411.207,202.008L482,131.211L482,171.793Z" style="fill-rule:nonzero;"/>
            </g>
        </g>
    </g>
</svg>
