<?xml version="1.0" encoding="UTF-8" standalone="no"?>
<!DOCTYPE svg PUBLIC "-//W3C//DTD SVG 1.1//EN" "http://www.w3.org/Graphics/SVG/1.1/DTD/svg11.dtd">
<svg width="100%" height="100%" viewBox="0 0 1440 900" version="1.1" xmlns="http://www.w3.org/2000/svg" xmlns:xlink="http://www.w3.org/1999/xlink" xml:space="preserve" xmlns:serif="http://www.serif.com/" style="fill-rule:evenodd;clip-rule:evenodd;stroke-linejoin:round;stroke-miterlimit:2;">
    <g transform="matrix(1.00408,0,0,1.00408,-5399.67,131.455)">
        <path d="M6109.95,361.055C6123.4,358.045 6128.02,346.833 6134.15,326.803C6141.21,303.796 6144.28,279.93 6148.86,256.388C6157.22,213.573 6168.1,171.845 6204.13,141.985C6205.95,140.48 6208,139.288 6210.21,138.459C6233.34,129.77 6253.99,129.277 6272.06,135.645C6290.03,141.978 6305.92,155.287 6318.82,176.59C6328.9,193.247 6335.23,211.418 6339.09,230.322C6347.88,273.234 6355.56,316.381 6365.03,359.138C6370.02,381.622 6373.81,404.957 6388.6,423.855C6391.36,427.39 6393.75,430.318 6396.9,430.238C6400.03,430.158 6402.24,427.127 6404.81,423.484C6410.86,414.878 6414.01,404.892 6417.44,395.062C6427.42,366.454 6433.76,336.615 6446.41,308.919C6465.19,267.839 6492.56,246.988 6520.58,243.514C6548.7,240.026 6580.18,253.639 6607.95,289.165C6618.94,303.227 6628.37,318.512 6639.26,332.658C6649.64,346.145 6661.66,357.093 6680.01,356.021C6681.53,355.932 6683.07,356.008 6684.58,356.249C6693.59,357.682 6702.3,355.31 6711.04,353.662C6723.39,351.333 6731.07,354.719 6736.33,358.699C6740.85,362.118 6744.09,366.691 6746.06,372.185C6747.39,375.864 6748.51,383.857 6748.62,384.635C6751.41,393.906 6750.9,404.522 6745.26,412.785C6741.43,418.411 6735.06,424.049 6723.18,426.111C6699.91,430.154 6676.87,430.561 6653.6,427.64C6652.25,427.471 6650.92,427.172 6649.63,426.748C6617.67,416.264 6593.85,395.481 6574.99,368.377C6564.17,352.824 6554.44,336.383 6540.82,323.016C6536.71,318.991 6533.67,315.581 6530,316.102C6526.15,316.649 6523.9,320.903 6520.81,326.092C6509.65,344.844 6502.37,365.131 6496.34,385.975C6487.6,416.226 6478.05,446.16 6459.91,472.217C6456.79,476.817 6453.56,482.043 6449.3,484.912C6428.08,499.221 6407.51,504.637 6388.71,502.824C6369.11,500.933 6350.84,491.31 6335.21,473.197C6318.12,453.398 6308.66,429.594 6300.85,405.068C6285.54,357.037 6281.24,306.766 6270.69,257.768C6267.03,240.74 6264.34,223.201 6252.82,209.35C6251.07,207.248 6249.35,205.502 6247.57,204.202C6246.99,203.777 6246.04,203.296 6245.52,203.046C6244.57,203.911 6241.15,207.11 6239.29,210.135C6235.66,216.031 6233.15,222.696 6230.75,229.228C6221.9,253.307 6218.85,278.737 6214.32,303.791C6209.29,331.64 6204.91,359.943 6189.82,384.39C6176.11,406.627 6156.49,422.054 6133.73,430.139C6131.49,431.095 6129.07,431.797 6126.56,432.44C6126.17,432.541 6125.78,432.639 6125.86,432.612C6115.91,435.326 6105.44,436.692 6094.91,436.627C6084.12,436.692 6073.65,435.327 6064.18,432.738C6063.79,432.639 6063.4,432.541 6063.03,432.446C6060.5,431.8 6058.07,431.097 6055.83,430.139C6033.07,422.057 6013.46,406.629 5999.74,384.391C5984.65,359.943 5980.27,331.64 5975.24,303.792C5970.71,278.737 5967.66,253.307 5958.82,229.231C5956.41,222.696 5953.9,216.031 5950.27,210.131C5948.42,207.11 5945,203.912 5944.04,203.046C5943.52,203.296 5942.57,203.777 5941.99,204.202C5940.22,205.502 5938.49,207.248 5936.74,209.345C5925.22,223.201 5922.53,240.74 5918.87,257.766C5908.32,306.766 5904.02,357.037 5888.71,405.069C5880.9,429.594 5871.44,453.398 5854.35,473.199C5838.72,491.31 5820.45,500.933 5800.85,502.824C5782.05,504.637 5761.48,499.221 5740.28,484.922C5736,482.043 5732.77,476.817 5729.79,472.425C5711.51,446.16 5701.96,416.226 5693.22,385.977C5687.19,365.131 5679.91,344.844 5668.75,326.091C5665.66,320.903 5663.41,316.649 5659.56,316.102C5655.9,315.581 5652.85,318.991 5648.74,323.019C5635.12,336.383 5625.39,352.824 5614.57,368.376C5595.71,395.481 5571.89,416.264 5539.94,426.748C5538.64,427.172 5537.31,427.471 5535.96,427.64C5512.69,430.561 5489.65,430.154 5466.38,426.112C5454.5,424.049 5448.13,418.411 5444.3,412.785C5438.66,404.52 5438.16,393.899 5440.94,384.634C5441.05,383.849 5442.18,375.863 5443.5,372.185C5445.48,366.691 5448.71,362.118 5453.23,358.699C5458.49,354.719 5466.18,351.333 5478.52,353.662C5487.26,355.31 5495.98,357.682 5504.98,356.249C5506.49,356.008 5508.03,355.932 5509.56,356.021C5527.9,357.093 5539.92,346.145 5550.3,332.658C5561.19,318.512 5570.62,303.227 5581.61,289.163C5609.38,253.639 5640.86,240.026 5668.98,243.514C5697,246.988 5724.37,267.839 5743.15,308.92C5755.8,336.615 5762.14,366.454 5772.12,395.056C5775.55,404.892 5778.71,414.878 5784.76,423.488C5787.32,427.127 5789.54,430.158 5792.66,430.238C5795.81,430.318 5798.2,427.39 5800.96,423.856C5815.75,404.957 5819.54,381.622 5824.53,359.138C5834.01,316.381 5841.68,273.234 5850.47,230.326C5854.33,211.418 5860.66,193.247 5870.75,176.589C5883.64,155.287 5899.53,141.978 5917.5,135.645C5935.57,129.277 5956.22,129.77 5979.35,138.459C5981.56,139.288 5983.61,140.48 5985.43,141.985C6021.46,171.845 6032.35,213.573 6040.7,256.389C6045.29,279.93 6048.35,303.796 6055.41,326.804C6061.55,346.833 6066.16,358.045 6079.61,361.055C6080.53,361.092 6081.46,361.158 6082.4,361.252C6086.84,361.7 6090.95,361.992 6094.78,362.089C6098.61,361.992 6102.72,361.7 6107.16,361.253C6108.1,361.158 6109.03,361.092 6109.95,361.055Z" style="fill:rgb(108,83,214);"/>
    </g>
</svg>
