<?xml version="1.0" encoding="UTF-8" standalone="no"?>
<!DOCTYPE svg PUBLIC "-//W3C//DTD SVG 1.1//EN" "http://www.w3.org/Graphics/SVG/1.1/DTD/svg11.dtd">
<svg width="100%" height="100%" viewBox="0 0 900 900" version="1.1" xmlns="http://www.w3.org/2000/svg" xmlns:xlink="http://www.w3.org/1999/xlink" xml:space="preserve" xmlns:serif="http://www.serif.com/" style="fill-rule:evenodd;clip-rule:evenodd;stroke-linejoin:round;stroke-miterlimit:2;">
    <g transform="matrix(2.09128,0,0,2.09128,-3201.83,985.892)">
        <g>
            <g>
                <g transform="matrix(0.503464,0,0,0.503464,-3817.36,-604.698)">
                    <path d="M10819.8,733.869C10826.9,734.668 10833.9,734.594 10840.9,733.708C10841.4,733.644 10841.9,733.531 10842.4,733.372C10854.5,729.42 10863.4,721.586 10870.6,711.368C10874.6,705.506 10878.3,699.308 10883.4,694.271C10885,692.752 10886.1,691.467 10887.5,691.663C10889,691.869 10889.8,693.473 10891,695.429C10895.2,702.498 10897.9,710.145 10900.2,718.003C10903.5,729.406 10907.1,740.689 10914,750.59C10915.1,752.246 10916.3,754.216 10917.9,755.301C10925.9,760.691 10933.7,762.733 10940.8,762.049C10948.2,761.336 10955,757.709 10960.9,750.881C10967.4,743.417 10970.9,734.444 10973.9,725.2C10979.7,707.094 10981.3,688.144 10985.3,669.673C10986.6,663.255 10987.7,656.644 10992,651.421C10992.7,650.63 10993.3,649.972 10994,649.482C10994.2,649.322 10994.6,649.14 10994.7,649.046C10995.1,649.372 10996.4,650.578 10997.1,651.717C10998.5,653.941 10999.4,656.453 11000.3,658.917C11003.7,667.992 11004.8,677.578 11006.5,687.023C11008.4,697.52 11010.1,708.189 11015.7,717.405C11020.9,725.788 11028.3,731.604 11036.9,734.65C11037.7,735.011 11038.6,735.276 11039.6,735.52C11039.7,735.555 11039.9,735.592 11040,735.629C11043.6,736.605 11047.6,737.12 11051.6,737.096C11055.6,737.12 11059.5,736.605 11063.3,735.582C11063.3,735.592 11063.4,735.555 11063.5,735.517C11064.5,735.275 11065.4,735.01 11066.3,734.65C11074.8,731.602 11082.2,725.787 11087.4,717.405C11093.1,708.189 11094.7,697.52 11096.6,687.022C11098.3,677.578 11099.5,667.992 11102.8,658.916C11103.7,656.453 11104.7,653.941 11106,651.718C11106.7,650.578 11108,649.372 11108.4,649.046C11108.6,649.14 11108.9,649.322 11109.2,649.482C11109.8,649.972 11110.5,650.63 11111.1,651.422C11115.5,656.644 11116.5,663.255 11117.9,669.674C11121.9,688.144 11123.5,707.094 11129.2,725.199C11132.2,734.444 11135.8,743.417 11142.2,750.881C11148.1,757.709 11155,761.336 11162.4,762.049C11169.5,762.733 11177.2,760.691 11185.2,755.297C11186.8,754.216 11188,752.246 11189.2,750.511C11196,740.689 11199.6,729.406 11202.9,718.002C11205.2,710.145 11208,702.498 11212.2,695.429C11213.3,693.473 11214.2,691.869 11215.6,691.663C11217,691.467 11218.2,692.752 11219.7,694.27C11224.8,699.308 11228.5,705.506 11232.6,711.369C11239.7,721.586 11248.7,729.42 11260.7,733.372C11261.2,733.531 11261.7,733.644 11262.2,733.708C11269.5,734.62 11276.7,734.671 11283.9,733.795C11278.3,780.343 11257.8,824.233 11225.5,858.876C11205.8,877.947 11180,887.985 11152,887.985C11136.5,887.985 11122,884.974 11107.5,877.947C11090.9,870.921 11072.3,866.906 11051.6,866.906C11030.9,866.906 11012.2,870.921 10995.7,878.951C10955.3,898.022 10906.6,888.989 10877.6,857.872C10845.3,822.647 10825.5,779.828 10819.8,733.869ZM10818.1,705.642C10818.1,700.531 10818.3,695.399 10818.6,690.246C10826.9,578.83 10920.1,488.492 11035,481.466C11100.2,477.451 11163.4,498.53 11211,541.691C11258.2,584.455 11285.1,643.971 11285.5,705.589C11285,705.635 11284.5,705.711 11283.9,705.822C11280.6,706.443 11277.3,707.337 11273.9,706.797C11273.3,706.706 11272.8,706.677 11272.2,706.711C11265.3,707.115 11260.7,702.988 11256.8,697.904C11252.7,692.572 11249.2,686.81 11245,681.509C11234.5,668.118 11222.7,662.986 11212.1,664.301C11201.5,665.61 11191.2,673.47 11184.1,688.955C11179.3,699.396 11177,710.644 11173.2,721.427C11171.9,725.133 11170.7,728.897 11168.4,732.141C11167.5,733.515 11166.6,734.657 11165.5,734.687C11164.3,734.717 11163.4,733.614 11162.3,732.281C11156.8,725.157 11155.3,716.361 11153.4,707.886C11149.9,691.768 11147,675.504 11143.7,659.328C11142.2,652.202 11139.8,645.352 11136,639.073C11131.2,631.043 11125.2,626.026 11118.4,623.639C11111.6,621.238 11103.8,621.424 11095.1,624.7C11094.2,625.012 11093.5,625.462 11092.8,626.029C11079.2,637.285 11075.1,653.014 11072,669.154C11070.2,678.028 11069.1,687.024 11066.4,695.697C11064.1,703.247 11062.4,707.474 11057.3,708.609C11056.9,708.622 11056.6,708.647 11056.2,708.683C11054.6,708.851 11053,708.961 11051.6,708.998C11050.1,708.961 11048.6,708.851 11046.9,708.683C11046.5,708.647 11046.2,708.622 11045.9,708.609C11040.8,707.474 11039,703.247 11036.7,695.697C11034.1,687.024 11032.9,678.028 11031.2,669.154C11028,653.014 11023.9,637.285 11010.3,626.029C11009.7,625.462 11008.9,625.012 11008.1,624.7C10999.3,621.424 10991.6,621.238 10984.7,623.639C10978,626.026 10972,631.043 10967.1,639.073C10963.3,645.352 10960.9,652.202 10959.5,659.329C10956.2,675.504 10953.3,691.768 10949.7,707.886C10947.8,716.361 10946.4,725.157 10940.8,732.282C10939.8,733.614 10938.9,734.717 10937.7,734.687C10936.5,734.657 10935.7,733.515 10934.7,732.143C10932.4,728.897 10931.2,725.133 10929.9,721.425C10926.2,710.644 10923.8,699.396 10919,688.956C10911.9,673.47 10901.6,665.61 10891.1,664.301C10880.5,662.986 10868.6,668.118 10858.1,681.508C10854,686.81 10850.4,692.572 10846.3,697.904C10842.4,702.988 10837.9,707.115 10831,706.711C10830.4,706.677 10829.8,706.706 10829.2,706.797C10825.8,707.337 10822.6,706.443 10819.3,705.822C10818.9,705.746 10818.5,705.687 10818.1,705.642Z" style="fill:rgb(108,83,214);fill-rule:nonzero;"/>
                </g>
                <g transform="matrix(0.503464,0,0,0.503464,-3817.36,-604.698)">
                    <path d="M11344.1,793.337C11302.2,914.568 11187.1,1001.56 11051.6,1001.56C10915.8,1001.56 10800.5,914.238 10758.8,792.677C10757.2,793.437 10755.4,793.852 10753.6,793.852L10709.6,793.852C10686.5,793.852 10668.7,776.018 10668.7,750.842L10668.7,650.137C10668.7,627.058 10687.5,609.225 10709.6,609.225L10719,609.225L10719,519.436C10699,513.976 10684.4,495.761 10684.4,473.902C10684.4,447.677 10705.4,426.696 10731.6,426.696C10757.8,426.696 10778.8,447.677 10778.8,473.902C10778,495.598 10763.4,513.705 10744.2,519.311L10744.2,609.225L10753.3,609.225C10789.5,478.513 10909.3,382.638 11051.6,382.638C11193.9,382.638 11313.6,478.513 11349.8,609.225L11391.6,609.225C11413.6,609.225 11432.5,627.058 11432.5,650.137L11432.5,750.842C11432.5,776.018 11414.7,793.852 11391.6,793.852L11347.5,793.852C11346.4,793.852 11345.2,793.673 11344.1,793.337ZM11051.6,406.765C10894.2,406.765 10766.2,534.745 10766.2,692.097C10766.2,849.449 10894.2,977.429 11051.6,977.429C11208.9,977.429 11336.9,849.449 11336.9,692.097C11336.9,534.745 11208.9,406.765 11051.6,406.765Z" style="fill:rgb(108,83,214);fill-rule:nonzero;"/>
                </g>
            </g>
        </g>
    </g>
</svg>
