<?xml version="1.0" encoding="UTF-8" standalone="no"?>
<!DOCTYPE svg PUBLIC "-//W3C//DTD SVG 1.1//EN" "http://www.w3.org/Graphics/SVG/1.1/DTD/svg11.dtd">
<svg width="100%" height="100%" viewBox="0 0 501 501" version="1.1" xmlns="http://www.w3.org/2000/svg" xmlns:xlink="http://www.w3.org/1999/xlink" xml:space="preserve" xmlns:serif="http://www.serif.com/" style="fill-rule:evenodd;clip-rule:evenodd;stroke-linejoin:round;stroke-miterlimit:2;">
    <g transform="matrix(1,0,0,1,0,-795.592)">
        <g id="value" transform="matrix(1,0,0,1,889.52,878.928)">
            <rect x="-889.52" y="-83.335" width="500.051" height="500.051" style="fill:none;"/>
            <g transform="matrix(1.08855,0,0,1.08855,56.0971,-25.2892)">
                <g transform="matrix(0.614351,0,0,0.614351,-790.794,15.3909)">
                    <circle cx="106" cy="287" r="15"/>
                </g>
                <g transform="matrix(0.614351,0,0,0.614351,-790.794,15.3909)">
                    <path d="M512,197C512,188.716 505.284,182 497,182C488.716,182 482,188.716 482,197C482,213.104 472.925,227.821 458.942,235.827C429.03,185.108 371.409,151.997 307.795,151.998L46,152C37.716,152 31,158.716 31,167C31,188.992 40.475,209.471 56.79,223.615C48.119,259.356 41.926,272 15,272C6.716,272 0,278.716 0,287L0,377C0,385.284 6.716,392 15,392C43.56,392 69.214,411.702 76,438.847L91.448,500.639C93.117,507.316 99.117,512 106,512L151,512C157.883,512 163.883,507.315 165.552,500.638L176.73,455.93C228.549,470.159 283.398,470.174 335.271,455.93L346.449,500.638C348.117,507.315 354.117,512 361,512L406,512C412.134,512 417.649,508.266 419.927,502.571L469.132,379.559C484.415,341.354 484.478,299.313 471.655,263.056C496.023,250.111 512,224.83 512,197ZM441.278,368.417L395.845,482L372.712,482L360.552,433.362C358.437,424.897 349.549,420.005 341.257,422.77C286.278,441.096 225.722,441.096 170.743,422.77C162.433,419.999 153.559,424.914 151.448,433.362L139.288,482L117.712,482L105.104,431.571C96.333,396.486 66.798,369.31 30,363.235L30,300.796C70.638,293.819 79.271,259.439 88.119,221.518L88.253,220.946C89.696,214.762 87.09,208.34 81.745,204.912C73.14,199.391 66.831,191.307 63.553,182L307.795,181.998C409.097,181.997 477.869,276.935 441.278,368.417Z" style="fill-rule:nonzero;"/>
                </g>
                <g transform="matrix(0.614351,0,0,0.614351,-790.794,15.3909)">
                    <path d="M316,212L196,212C187.716,212 181,218.716 181,227C181,235.284 187.716,242 196,242L316,242C324.284,242 331,235.284 331,227C331,218.716 324.284,212 316,212Z" style="fill-rule:nonzero;"/>
                </g>
                <g transform="matrix(0.614351,0,0,0.614351,-790.794,15.3909)">
                    <path d="M256,120C289.084,120 316,93.084 316,60C316,26.916 289.084,0 256,0C222.916,0 196,26.916 196,60C196,93.084 222.916,120 256,120ZM256,30C272.542,30 286,43.458 286,60C286,76.542 272.542,90 256,90C239.458,90 226,76.542 226,60C226,43.458 239.458,30 256,30Z" style="fill-rule:nonzero;"/>
                </g>
            </g>
        </g>
    </g>
</svg>
